<svg width="40" height="40" viewBox="0 0 40 40" fill="none" xmlns="http://www.w3.org/2000/svg">
<path d="M40 20C40 25.5228 37.7614 30.5228 34.1421 34.1421C30.5228 37.7614 25.5228 40 20 40C14.4772 40 9.47715 37.7614 5.85786 34.1421C2.23858 30.5228 0 25.5228 0 20C0 14.4772 2.23858 9.47715 5.85786 5.85786C9.47715 2.23858 14.4772 0 20 0C25.5228 0 30.5228 2.23858 34.1421 5.85786C37.7614 9.47715 40 14.4772 40 20Z" fill="#4D5AE5"/>
<g clip-path="url(#clip0_304500_986)" filter="url(#filter0_d_304500_986)">
<g filter="url(#filter1_d_304500_986)">
<path d="M27.9843 16.7039C27.9468 15.8538 27.8093 15.2693 27.6124 14.7629C27.4092 14.2253 27.0967 13.744 26.6872 13.3439C26.2871 12.9376 25.8026 12.6218 25.2713 12.4218C24.7619 12.2249 24.1805 12.0874 23.3303 12.0499C22.4738 12.0093 22.2019 11.9999 20.0296 11.9999C17.8573 11.9999 17.5854 12.0093 16.7321 12.0468C15.882 12.0842 15.2975 12.2218 14.7912 12.4187C14.2535 12.6218 13.7722 12.9344 13.3721 13.3439C12.9658 13.744 12.6501 14.2285 12.45 14.7598C12.2531 15.2693 12.1156 15.8506 12.0781 16.7007C12.0375 17.5572 12.0281 17.8291 12.0281 20.0014C12.0281 22.1737 12.0375 22.4456 12.075 23.299C12.1124 24.1491 12.25 24.7336 12.447 25.24C12.6501 25.7776 12.9658 26.2589 13.3721 26.659C13.7722 27.0653 14.2567 27.3811 14.788 27.581C15.2975 27.778 15.8788 27.9155 16.7291 27.9529C17.5823 27.9906 17.8543 27.9998 20.0266 27.9998C22.1989 27.9998 22.4708 27.9906 23.3241 27.9529C24.1742 27.9155 24.7587 27.778 25.265 27.581C26.3403 27.1653 27.1904 26.3152 27.6062 25.24C27.803 24.7305 27.9406 24.1491 27.9781 23.299C28.0156 22.4456 28.025 22.1737 28.025 20.0014C28.025 17.8291 28.0218 17.5572 27.9843 16.7039ZM26.5435 23.2364C26.509 24.0179 26.3778 24.4398 26.2684 24.7211C25.9995 25.4181 25.4463 25.9714 24.7493 26.2402C24.468 26.3496 24.043 26.4809 23.2646 26.5152C22.4207 26.5528 22.1676 26.562 20.0328 26.562C17.898 26.562 17.6417 26.5528 16.8009 26.5152C16.0195 26.4809 15.5975 26.3496 15.3162 26.2402C14.9693 26.112 14.6536 25.9088 14.3973 25.6432C14.1316 25.3837 13.9285 25.0712 13.8003 24.7243C13.6909 24.443 13.5596 24.0179 13.5253 23.2396C13.4877 22.3957 13.4784 22.1425 13.4784 20.0077C13.4784 17.8729 13.4877 17.6166 13.5253 16.7758C13.5596 15.9944 13.6909 15.5725 13.8003 15.2912C13.9285 14.9442 14.1316 14.6286 14.4005 14.3722C14.6598 14.1065 14.9724 13.9033 15.3194 13.7752C15.6007 13.6659 16.0258 13.5346 16.804 13.5002C17.6479 13.4627 17.9012 13.4533 20.0359 13.4533C22.1738 13.4533 22.4269 13.4627 23.2678 13.5002C24.0492 13.5346 24.4712 13.6659 24.7525 13.7752C25.0993 13.9033 25.4151 14.1065 25.6714 14.3722C25.937 14.6316 26.1402 14.9442 26.2684 15.2912C26.3778 15.5725 26.509 15.9975 26.5435 16.7758C26.581 17.6198 26.5904 17.8729 26.5904 20.0077C26.5904 22.1425 26.581 22.3925 26.5435 23.2364Z" fill="#F4F4FD"/>
<path d="M27.1447 14.9396L27.1447 14.9396C26.9669 14.4691 26.6942 14.0498 26.3378 13.7015L26.3308 13.6948L26.3309 13.6947C25.9813 13.3396 25.5582 13.0641 25.0951 12.8898L25.0909 12.8882L25.0909 12.8882C24.6366 12.7125 24.1092 12.5848 23.3083 12.5495L23.3066 12.5494C22.462 12.5093 22.1994 12.4999 20.0296 12.4999C17.86 12.4999 17.5965 12.5093 16.7541 12.5463L27.1447 14.9396ZM27.1447 14.9396L27.1464 14.9441M27.1447 14.9396L27.1464 14.9441M27.1464 14.9441C27.3215 15.3945 27.4494 15.9245 27.4848 16.7259M27.1464 14.9441L27.4848 16.7259M14.9679 12.8864L14.9679 12.8864C14.4972 13.0642 14.078 13.3369 13.7297 13.6933L13.723 13.7002L13.7229 13.7002C13.3679 14.0497 13.0924 14.4729 12.9179 14.936L12.9164 14.9401L12.9164 14.9401C12.7407 15.3946 12.613 15.9219 12.5776 16.7228L12.5776 16.7245C12.5375 17.569 12.5281 17.8316 12.5281 20.0014C12.5281 22.1711 12.5375 22.4345 12.5745 23.2769L14.9679 12.8864ZM14.9679 12.8864L14.9723 12.8847M14.9679 12.8864L14.9723 12.8847M14.9723 12.8847C15.4227 12.7096 15.9527 12.5816 16.7541 12.5463L14.9723 12.8847ZM12.9147 25.0632L12.9147 25.0633C13.092 25.5325 13.3675 25.9527 13.7229 26.3027L13.7284 26.3081L13.7284 26.3082C14.078 26.6632 14.5011 26.9388 14.9641 27.1131L14.9683 27.1147L14.9683 27.1147C15.4227 27.2903 15.9501 27.4181 16.7511 27.4534C17.5933 27.4906 17.8568 27.4998 20.0266 27.4998C22.1963 27.4998 22.4597 27.4906 23.3021 27.4534M12.9147 25.0632L23.3021 27.4534M12.9147 25.0632L12.913 25.0588M12.9147 25.0632L12.913 25.0588M23.3021 27.4534C24.1035 27.4181 24.6335 27.2902 25.0838 27.1151L25.0847 27.1147C26.0286 26.7498 26.7748 26.0035 27.1398 25.0598L23.3021 27.4534ZM27.4848 16.7259C27.4848 16.7259 27.4848 16.7259 27.4848 16.7259L27.9843 16.7039L27.4848 16.7259ZM12.913 25.0588C12.7378 24.6084 12.6098 24.0784 12.5745 23.277L12.913 25.0588ZM26.7346 24.9017C26.415 25.7299 25.758 26.3869 24.9298 26.7065C24.599 26.8351 24.1204 26.9779 23.2869 27.0147C22.432 27.0528 22.1704 27.062 20.0328 27.062C17.8956 27.062 17.6305 27.0528 16.7789 27.0147L26.7346 24.9017ZM26.7346 24.9017C26.8631 24.5711 27.0061 24.0956 27.043 23.2586C27.0809 22.4039 27.0904 22.1453 27.0904 20.0077C27.0904 17.87 27.0809 17.6084 27.043 16.7537C27.0062 15.9227 26.8642 15.4445 26.7359 15.1138C26.5826 14.7008 26.3408 14.3286 26.026 14.0197C25.7178 13.7018 25.341 13.4602 24.9298 13.3077C24.5994 13.1796 24.1242 13.0374 23.2901 13.0007L26.7346 24.9017ZM15.1389 26.7077C14.7277 26.5551 14.3509 26.3136 14.0427 25.9957C13.7278 25.6867 13.4861 25.3146 13.3328 24.9017C13.2045 24.571 13.0625 24.0927 13.0258 23.2619L15.1389 26.7077ZM15.1389 26.7077C15.4693 26.8359 15.9445 26.978 16.7788 27.0147L15.1389 26.7077ZM27.4786 23.277C27.4432 24.0777 27.3154 24.6052 27.1398 25.0597L27.4786 23.2769C27.4786 23.277 27.4786 23.277 27.4786 23.277ZM12.9784 20.0077C12.9784 22.145 12.9877 22.407 13.0258 23.2616L16.7818 13.0007C15.9511 13.0374 15.4728 13.1795 15.1421 13.3077C14.7294 13.4607 14.3576 13.7022 14.0489 14.0165C13.727 14.3255 13.4853 14.7027 13.3328 15.1138C13.2046 15.4442 13.0625 15.9194 13.0258 16.7535C12.9877 17.6053 12.9784 17.8702 12.9784 20.0077ZM20.0359 12.9533C17.8984 12.9533 17.6366 12.9627 16.7819 13.0007L23.2898 13.0007C22.4382 12.9627 22.1764 12.9533 20.0359 12.9533Z" stroke="black"/>
</g>
<g filter="url(#filter2_d_304500_986)">
<path d="M20.0297 15.8912C17.7606 15.8912 15.9195 17.7322 15.9195 20.0014C15.9195 22.2707 17.7606 24.1116 20.0297 24.1116C22.2989 24.1116 24.1398 22.2707 24.1398 20.0014C24.1398 17.7322 22.2989 15.8912 20.0297 15.8912ZM20.0297 22.6676C18.5576 22.6676 17.3635 21.4736 17.3635 20.0014C17.3635 18.5292 18.5576 17.3352 20.0297 17.3352C21.5019 17.3352 22.6958 18.5292 22.6958 20.0014C22.6958 21.4736 21.5019 22.6676 20.0297 22.6676Z" fill="#F4F4FD"/>
<path d="M16.4195 20.0014C16.4195 18.0083 18.0367 16.3912 20.0297 16.3912C22.0228 16.3912 23.6398 18.0083 23.6398 20.0014C23.6398 21.9945 22.0228 23.6116 20.0297 23.6116C18.0367 23.6116 16.4195 21.9945 16.4195 20.0014ZM16.8635 20.0014C16.8635 21.7498 18.2815 23.1676 20.0297 23.1676C21.778 23.1676 23.1958 21.7498 23.1958 20.0014C23.1958 18.2531 21.778 16.8352 20.0297 16.8352C18.2815 16.8352 16.8635 18.253 16.8635 20.0014Z" stroke="black"/>
</g>
<path d="M25.262 15.7287C25.262 16.2586 24.8324 16.6882 24.3024 16.6882C23.7725 16.6882 23.3428 16.2586 23.3428 15.7287C23.3428 15.1987 23.7725 14.7692 24.3024 14.7692C24.8324 14.7692 25.262 15.1987 25.262 15.7287Z" fill="#F4F4FD"/>
</g>
<defs>
<filter id="filter0_d_304500_986" x="8" y="11.9999" width="24" height="24" filterUnits="userSpaceOnUse" color-interpolation-filters="sRGB">
<feFlood flood-opacity="0" result="BackgroundImageFix"/>
<feColorMatrix in="SourceAlpha" type="matrix" values="0 0 0 0 0 0 0 0 0 0 0 0 0 0 0 0 0 0 127 0" result="hardAlpha"/>
<feOffset dy="4"/>
<feGaussianBlur stdDeviation="2"/>
<feComposite in2="hardAlpha" operator="out"/>
<feColorMatrix type="matrix" values="0 0 0 0 0 0 0 0 0 0 0 0 0 0 0 0 0 0 0.25 0"/>
<feBlend mode="normal" in2="BackgroundImageFix" result="effect1_dropShadow_304500_986"/>
<feBlend mode="normal" in="SourceGraphic" in2="effect1_dropShadow_304500_986" result="shape"/>
</filter>
<filter id="filter1_d_304500_986" x="8.02808" y="11.9999" width="23.9969" height="24" filterUnits="userSpaceOnUse" color-interpolation-filters="sRGB">
<feFlood flood-opacity="0" result="BackgroundImageFix"/>
<feColorMatrix in="SourceAlpha" type="matrix" values="0 0 0 0 0 0 0 0 0 0 0 0 0 0 0 0 0 0 127 0" result="hardAlpha"/>
<feOffset dy="4"/>
<feGaussianBlur stdDeviation="2"/>
<feComposite in2="hardAlpha" operator="out"/>
<feColorMatrix type="matrix" values="0 0 0 0 0 0 0 0 0 0 0 0 0 0 0 0 0 0 0.25 0"/>
<feBlend mode="normal" in2="BackgroundImageFix" result="effect1_dropShadow_304500_986"/>
<feBlend mode="normal" in="SourceGraphic" in2="effect1_dropShadow_304500_986" result="shape"/>
</filter>
<filter id="filter2_d_304500_986" x="11.9195" y="15.8912" width="16.2203" height="16.2203" filterUnits="userSpaceOnUse" color-interpolation-filters="sRGB">
<feFlood flood-opacity="0" result="BackgroundImageFix"/>
<feColorMatrix in="SourceAlpha" type="matrix" values="0 0 0 0 0 0 0 0 0 0 0 0 0 0 0 0 0 0 127 0" result="hardAlpha"/>
<feOffset dy="4"/>
<feGaussianBlur stdDeviation="2"/>
<feComposite in2="hardAlpha" operator="out"/>
<feColorMatrix type="matrix" values="0 0 0 0 0 0 0 0 0 0 0 0 0 0 0 0 0 0 0.25 0"/>
<feBlend mode="normal" in2="BackgroundImageFix" result="effect1_dropShadow_304500_986"/>
<feBlend mode="normal" in="SourceGraphic" in2="effect1_dropShadow_304500_986" result="shape"/>
</filter>
<clipPath id="clip0_304500_986">
<rect width="16" height="16" fill="white" transform="translate(12 11.9999)"/>
</clipPath>
</defs>
</svg>
